<?xml version="1.0" encoding="UTF-8"?>
<svg xmlns="http://www.w3.org/2000/svg" xmlns:xlink="http://www.w3.org/1999/xlink" version="1.1" viewBox="0 0 337.4 370.4">
  <!-- Generator: Adobe Illustrator 29.3.0, SVG Export Plug-In . SVG Version: 2.1.0 Build 146)  -->
  <defs>
    <clipPath id="clippath">
      <ellipse cx="168.7" cy="185.2" rx="162.9" ry="166.8" style="fill: none;"/>
    </clipPath>
  </defs>
  <g id="ladybug">
    <g id="ladybugBody">
      <g id="body">
        <ellipse id="ladybug_x5F_body" cx="168.7" cy="185.2" rx="162.9" ry="166.8" style="fill: #bb3f0e;"/>
      </g>
      <g style="clip-path: url(#clippath);">
        <g id="ladybug_x5F_dots">
          <g id="ladybug_x5F_dot_x5F_0">
            <ellipse id="ladybug_x5F_dot_x5F_0_x5F_circle" cx="168.7" cy="185.2" rx="48.8" ry="47.9"/>
            <rect x="151.8" y="163.9" width="34" height="32.7" style="fill: none;"/>
            <text id="ladybug_x5F_dot_x5F_0_x5F_text" transform="translate(151.7 201.1) scale(1 1)" style="fill: #fff; font-family: Arial-BoldMT, Arial; font-size: 45.1px; font-weight: 700; isolation: isolate;"><tspan x="0" y="0">A</tspan></text>
          </g>
          <g id="ladybug_x5F_dot_x5F_1">
            <ellipse id="ladybug_x5F_dot_x5F_1_x5F_circle" cx="168.7" cy="54.4" rx="48.8" ry="47.9"/>
            <rect x="151.8" y="32.8" width="34" height="32.7" style="fill: none;"/>
            <text id="ladybug_x5F_dot_x5F_1_x5F_text" transform="translate(151.8 75.2) scale(1 1)" style="fill: #fff; font-family: Arial-BoldMT, Arial; font-size: 45.1px; font-weight: 700; isolation: isolate;"><tspan x="0" y="0">A</tspan></text>
          </g>
          <g id="ladybug_x5F_dot_x5F_2">
            <ellipse id="ladybug_x5F_dot_x5F_2_x5F_circle" cx="284.2" cy="119.9" rx="48.8" ry="47.9"/>
            <rect x="267.3" y="98.3" width="34" height="32.7" style="fill: none;"/>
            <text id="ladybug_x5F_dot_x5F_2_x5F_text" transform="translate(261.8 135.8) scale(1 1)" style="fill: #fff; font-family: Arial-BoldMT, Arial; font-size: 45.1px; font-weight: 700; isolation: isolate;"><tspan x="0" y="0">A</tspan></text>
          </g>
          <g id="ladybug_x5F_dot_x5F_3">
            <ellipse id="ladybug_x5F_dot_x5F_3_x5F_circle" cx="284.2" cy="250.6" rx="48.8" ry="47.9"/>
            <rect x="267.3" y="229.3" width="34" height="32.7" style="fill: none;"/>
            <text id="ladybug_x5F_dot_x5F_3_x5F_text" transform="translate(267.3 261.6) scale(1 1)" style="fill: #fff; font-family: Arial-BoldMT, Arial; font-size: 45.1px; font-weight: 700; isolation: isolate;"><tspan x="0" y="0">A</tspan></text>
          </g>
          <g id="ladybug_x5F_dot_x5F_4">
            <ellipse id="ladybug_x5F_dot_x5F_4_x5F_circle" cx="168.7" cy="316.2" rx="48.8" ry="47.9"/>
            <rect x="151.8" y="294.8" width="34" height="32.7" style="fill: none;"/>
            <text id="ladybug_x5F_dot_x5F_4_x5F_text" transform="translate(151.7 327.1) scale(1 1)" style="fill: #fff; font-family: Arial-BoldMT, Arial; font-size: 45.1px; font-weight: 700; isolation: isolate;"><tspan x="0" y="0">A</tspan></text>
          </g>
          <g id="ladybug_x5F_dot_x5F_5">
            <ellipse id="ladybug_x5F_dot_x5F_5_x5F_circle" cx="53.2" cy="250.5" rx="48.8" ry="47.9"/>
            <rect x="35.4" y="229.2" width="36" height="34.4" style="fill: none;"/>
            <text id="ladybug_x5F_dot_x5F_6_x5F_text" transform="translate(40.9 260.1) scale(1 1)" style="fill: #fff; font-family: Arial-BoldMT, Arial; font-size: 45.1px; font-weight: 700; isolation: isolate;"><tspan x="0" y="0">A</tspan></text>
          </g>
          <g id="ladybug_x5F_dot_x5F_6">
            <ellipse id="ladybug_x5F_dot_x5F_61" data-name="ladybug_x5F_dot_x5F_6" cx="53.2" cy="119.5" rx="48.8" ry="47.9"/>
            <rect x="35.4" y="98.2" width="36" height="34.4" style="fill: none;"/>
            <text id="ladybug_x5F_dot_x5F_6_x5F_text1" data-name="ladybug_x5F_dot_x5F_6_x5F_text" transform="translate(41 134.4) scale(1 1)" style="fill: #fff; font-family: Arial-BoldMT, Arial; font-size: 45.1px; font-weight: 700; isolation: isolate;"><tspan x="0" y="0">A</tspan></text>
          </g>
        </g>
      </g>
      <g id="border">
        <ellipse id="ladybug_x5F_body1" data-name="ladybug_x5F_body" cx="168.7" cy="185.2" rx="162.9" ry="166.8" style="fill: none; stroke: #000; stroke-miterlimit: 10; stroke-width: 13.3px;"/>
      </g>
    </g>
  </g>
  <g id="flower">
    <path d="M306.4,207.3c-10-5.7-34.9-15.1-60.9-21.9,26.1-6.7,51-15.9,61.1-21.5,23.1-12.9,31.2-42.4,18-65.9-13.1-23.5-42.5-32.1-65.6-19.2-10.7,6-33.7,24.2-54,44.4,7.7-27.6,12.4-56.5,12.4-68.7,0-26.5-21.8-47.9-48.8-47.9s-48.8,21.4-48.8,47.9,4.6,40.6,12.1,67.9c-20-20-42.5-38.1-53.1-44.1-23-13.1-52.4-4.6-65.7,18.8C0,120.4,7.8,150,30.8,163.1c10,5.7,35.1,15.1,61.2,21.9-26.1,6.7-51.2,16-61.3,21.7C7.7,219.7-.3,249.2,12.9,272.7c13.2,23.5,42.6,32,65.6,19.1,10.6-6,33.5-24.1,53.7-44.3-7.7,27.5-12.3,56.3-12.3,68.5,0,26.5,21.8,47.9,48.8,47.9s48.8-21.4,48.8-47.9-4.6-40.6-12.1-67.8c20,20,42.5,38.1,53,44,23,13.1,52.4,4.7,65.7-18.8,13.3-23.4,5.4-53-17.6-66.1Z" style="fill: #fff; stroke: #fbb03b; stroke-miterlimit: 10; stroke-width: 13px;"/>
    <g id="flowerBody">
      <g>
        <g id="flower_x5F_petal_x5F_3">
          <path id="flower_x5F_petal_x5F_3_x5F_circle" d="M324,273.4c-13.3,23.4-42.7,31.8-65.7,18.8-23-13.1-102.9-83.6-89.6-107,13.3-23.4,114.8,9.1,137.8,22.2s30.9,42.6,17.6,66.1Z" style="fill: #e6a630; stroke: #fff; stroke-miterlimit: 10; stroke-width: 5px;"/>
          <g id="flower_x5F_petal_x5F_3_x5F_text">
            <text transform="translate(267.2 261.6) scale(1 1)" style="fill: #fff; font-family: Arial-BoldMT, Arial; font-size: 45.1px; font-weight: 700;"><tspan x="0" y="0">A</tspan></text>
          </g>
        </g>
        <g id="flower_x5F_petal_x5F_5">
          <path id="flower_x5F_petal_x5F_5_x5F_circle" d="M12.9,272.7c-13.2-23.5-5.2-53,17.9-66,23.1-13,124.7-45,137.9-21.5,13.2,23.5-67.1,93.6-90.1,106.6-23.1,13-52.5,4.4-65.6-19.1Z" style="fill: #e6a630; stroke: #fff; stroke-miterlimit: 10; stroke-width: 5px;"/>
          <g id="flower_x5F_petal_x5F_5_x5F_text">
            <text transform="translate(40.9 260.1) scale(1 1)" style="fill: #fff; font-family: Arial-BoldMT, Arial; font-size: 45.1px; font-weight: 700;"><tspan x="0" y="0">A</tspan></text>
          </g>
        </g>
        <g id="flower_x5F_petal_x5F_1">
          <g id="flower_x5F_petal_x5F_1_x5F_circle">
            <path d="M168.6,6.5c26.9,0,48.8,21.4,48.8,47.9s-21.8,130.8-48.8,130.8-48.8-104.3-48.8-130.8S141.7,6.5,168.6,6.5Z" style="fill: #fff;"/>
            <path d="M168.6,6.5c26.9,0,48.8,21.4,48.8,47.9s-21.8,130.8-48.8,130.8-48.8-104.3-48.8-130.8S141.7,6.5,168.6,6.5Z" style="fill: #e6a630;"/>
            <path d="M168.6,6.5c26.9,0,48.8,21.4,48.8,47.9s-21.8,130.8-48.8,130.8-48.8-104.3-48.8-130.8S141.7,6.5,168.6,6.5Z" style="fill: none; stroke: #fff; stroke-miterlimit: 10; stroke-width: 5px;"/>
          </g>
          <g id="flower_x5F_petal_x5F_1_x5F_text">
            <text transform="translate(151.7 75.2) scale(1 1)" style="fill: #fff; font-family: Arial-BoldMT, Arial; font-size: 45.1px; font-weight: 700;"><tspan x="0" y="0">A</tspan></text>
          </g>
        </g>
        <g id="flower_x5F_petal_x5F_6">
          <path id="flower_x5F_petal_x5F_6_x5F_circle" d="M13.2,97c13.3-23.4,42.7-31.8,65.7-18.8,23,13.1,103,83.5,89.7,107-13.3,23.4-114.8-9.1-137.8-22.1C7.8,150,0,120.4,13.2,97Z" style="fill: #e6a630; stroke: #fff; stroke-miterlimit: 10; stroke-width: 5px;"/>
          <g id="flower_x5F_petal_x5F_6_x5F_text">
            <text transform="translate(40.9 134.4) scale(1 1)" style="fill: #fff; font-family: Arial-BoldMT, Arial; font-size: 45.1px; font-weight: 700;"><tspan x="0" y="0">A</tspan></text>
          </g>
        </g>
        <g id="flower_x5F_petal_x5F_4">
          <path id="flower_x5F_petal_x5F_4_x5F_circle" d="M168.6,363.9c-26.9,0-48.8-21.4-48.8-47.9s21.8-130.8,48.8-130.8,48.8,104.3,48.8,130.8-21.8,47.9-48.8,47.9Z" style="fill: #e6a630; stroke: #fff; stroke-miterlimit: 10; stroke-width: 5px;"/>
          <g id="flower_x5F_petal_x5F_4_x5F_text">
            <text transform="translate(151.6 327.1) scale(1 1)" style="fill: #fff; font-family: Arial-BoldMT, Arial; font-size: 45.1px; font-weight: 700;"><tspan x="0" y="0">A</tspan></text>
          </g>
        </g>
        <g id="flower_x5F_petal_x5F_2">
          <path id="flower_x5F_petal_x5F_2_x5F_circle" d="M324.6,98c13.1,23.5,5.1,53-18,65.9-23.1,12.9-124.8,44.8-138,21.2-13.1-23.5,67.3-93.5,90.4-106.4,23.1-12.9,52.5-4.3,65.6,19.2Z" style="fill: #e6a630; stroke: #fff; stroke-miterlimit: 10; stroke-width: 5px;"/>
          <text id="flower_x5F_petal_x5F_2_x5F_text" transform="translate(261.8 135.8) scale(1 1)" style="fill: #fff; font-family: Arial-BoldMT, Arial; font-size: 45.1px; font-weight: 700; isolation: isolate;"><tspan x="0" y="0">A</tspan></text>
        </g>
        <g id="flower_x5F_petal_x5F_0">
          <ellipse id="flower_x5F_petal_x5F_0_x5F_circle" cx="168.6" cy="185.2" rx="48.8" ry="47.9" style="fill: #fff; stroke: #fff; stroke-miterlimit: 10; stroke-width: 5px;"/>
          <text id="flower_x5F_petal_x5F_0_x5F_text" transform="translate(151.6 201.1) scale(1 1)" style="fill: #e6a630; font-family: Arial-BoldMT, Arial; font-size: 45.1px; font-weight: 700;"><tspan x="0" y="0">A</tspan></text>
        </g>
      </g>
    </g>
  </g>
</svg>